<svg width="1205" height="1024" viewBox="0 0 1205 1024" fill="none" xmlns="http://www.w3.org/2000/svg">
<g clip-path="url(#clip0_2310_5835)">
<line y1="38.1795" x2="1572.02" y2="38.1795" stroke="#DCDCDC" stroke-width="0.5" stroke-dasharray="2 2"/>
<line y1="76.6093" x2="1572.02" y2="76.6093" stroke="#DCDCDC" stroke-width="0.5" stroke-dasharray="2 2"/>
<line y1="115.04" x2="1572.02" y2="115.04" stroke="#DCDCDC" stroke-width="0.5" stroke-dasharray="2 2"/>
<line y1="153.469" x2="1572.02" y2="153.469" stroke="#DCDCDC" stroke-width="0.5" stroke-dasharray="2 2"/>
<line y1="191.899" x2="1572.02" y2="191.899" stroke="#DCDCDC" stroke-width="0.5" stroke-dasharray="2 2"/>
<line y1="230.329" x2="1572.02" y2="230.329" stroke="#DCDCDC" stroke-width="0.5" stroke-dasharray="2 2"/>
<line y1="268.758" x2="1572.02" y2="268.758" stroke="#DCDCDC" stroke-width="0.5" stroke-dasharray="2 2"/>
<line y1="307.188" x2="1572.02" y2="307.188" stroke="#DCDCDC" stroke-width="0.5" stroke-dasharray="2 2"/>
<line y1="345.618" x2="1572.02" y2="345.618" stroke="#DCDCDC" stroke-width="0.5" stroke-dasharray="2 2"/>
<line y1="384.048" x2="1572.02" y2="384.048" stroke="#DCDCDC" stroke-width="0.5" stroke-dasharray="2 2"/>
<line y1="422.477" x2="1572.02" y2="422.477" stroke="#DCDCDC" stroke-width="0.5" stroke-dasharray="2 2"/>
<line y1="460.75" x2="1572.02" y2="460.75" stroke="#DCDCDC" stroke-width="0.5" stroke-dasharray="2 2"/>
<line y1="499.023" x2="1572.02" y2="499.023" stroke="#DCDCDC" stroke-width="0.5" stroke-dasharray="2 2"/>
<line y1="537.295" x2="1572.02" y2="537.295" stroke="#DCDCDC" stroke-width="0.5" stroke-dasharray="2 2"/>
<line y1="575.568" x2="1572.02" y2="575.568" stroke="#DCDCDC" stroke-width="0.5" stroke-dasharray="2 2"/>
<line y1="613.841" x2="1572.02" y2="613.841" stroke="#DCDCDC" stroke-width="0.5" stroke-dasharray="2 2"/>
<line y1="652.114" x2="1572.02" y2="652.114" stroke="#DCDCDC" stroke-width="0.5" stroke-dasharray="2 2"/>
<line y1="690.386" x2="1572.02" y2="690.386" stroke="#DCDCDC" stroke-width="0.5" stroke-dasharray="2 2"/>
<line y1="732.386" x2="1572.02" y2="732.386" stroke="#DCDCDC" stroke-width="0.5" stroke-dasharray="2 2"/>
<line y1="775.386" x2="1572.02" y2="775.386" stroke="#DCDCDC" stroke-width="0.5" stroke-dasharray="2 2"/>
<line y1="817.386" x2="1572.02" y2="817.386" stroke="#DCDCDC" stroke-width="0.5" stroke-dasharray="2 2"/>
<line y1="860.386" x2="1572.02" y2="860.386" stroke="#DCDCDC" stroke-width="0.5" stroke-dasharray="2 2"/>
<line y1="901.386" x2="1572.02" y2="901.386" stroke="#DCDCDC" stroke-width="0.5" stroke-dasharray="2 2"/>
<line y1="941.386" x2="1572.02" y2="941.386" stroke="#DCDCDC" stroke-width="0.5" stroke-dasharray="2 2"/>
<line y1="977.386" x2="1572.02" y2="977.386" stroke="#DCDCDC" stroke-width="0.5" stroke-dasharray="2 2"/>
<line x1="0.25" y1="1.09278e-08" x2="0.249955" y2="1024" stroke="#DCDCDC" stroke-width="0.5" stroke-dasharray="2 2"/>
<line x1="42.25" y1="1.11864e-08" x2="42.25" y2="1024" stroke="#DCDCDC" stroke-width="0.5" stroke-dasharray="2 2"/>
<line x1="85.25" y1="1.11864e-08" x2="85.25" y2="1024" stroke="#DCDCDC" stroke-width="0.5" stroke-dasharray="2 2"/>
<line x1="127.25" y1="1.11864e-08" x2="127.25" y2="1024" stroke="#DCDCDC" stroke-width="0.5" stroke-dasharray="2 2"/>
<line x1="169.25" y1="1.11864e-08" x2="169.25" y2="1024" stroke="#DCDCDC" stroke-width="0.5" stroke-dasharray="2 2"/>
<line x1="211.25" y1="1.11864e-08" x2="211.25" y2="1024" stroke="#DCDCDC" stroke-width="0.5" stroke-dasharray="2 2"/>
<line x1="254.25" y1="1.11864e-08" x2="254.25" y2="1024" stroke="#DCDCDC" stroke-width="0.5" stroke-dasharray="2 2"/>
<line x1="296.25" y1="1.11864e-08" x2="296.25" y2="1024" stroke="#DCDCDC" stroke-width="0.5" stroke-dasharray="2 2"/>
<line x1="338.25" y1="1.11864e-08" x2="338.25" y2="1024" stroke="#DCDCDC" stroke-width="0.5" stroke-dasharray="2 2"/>
<line x1="380.25" y1="1.11864e-08" x2="380.25" y2="1024" stroke="#DCDCDC" stroke-width="0.5" stroke-dasharray="2 2"/>
<line x1="423.25" y1="1.11864e-08" x2="423.25" y2="1024" stroke="#DCDCDC" stroke-width="0.5" stroke-dasharray="2 2"/>
<line x1="465.25" y1="1.09278e-08" x2="465.25" y2="1024" stroke="#DCDCDC" stroke-width="0.5" stroke-dasharray="2 2"/>
<line x1="507.25" y1="1.11864e-08" x2="507.25" y2="1024" stroke="#DCDCDC" stroke-width="0.5" stroke-dasharray="2 2"/>
<line x1="550.25" y1="1.11864e-08" x2="550.25" y2="1024" stroke="#DCDCDC" stroke-width="0.5" stroke-dasharray="2 2"/>
<line x1="592.25" y1="1.11864e-08" x2="592.25" y2="1024" stroke="#DCDCDC" stroke-width="0.5" stroke-dasharray="2 2"/>
<line x1="634.25" y1="1.11864e-08" x2="634.25" y2="1024" stroke="#DCDCDC" stroke-width="0.5" stroke-dasharray="2 2"/>
<line x1="676.25" y1="1.11864e-08" x2="676.25" y2="1024" stroke="#DCDCDC" stroke-width="0.5" stroke-dasharray="2 2"/>
<line x1="719.25" y1="1.11864e-08" x2="719.25" y2="1024" stroke="#DCDCDC" stroke-width="0.5" stroke-dasharray="2 2"/>
<line x1="761.25" y1="1.11864e-08" x2="761.25" y2="1024" stroke="#DCDCDC" stroke-width="0.5" stroke-dasharray="2 2"/>
<line x1="803.25" y1="1.11864e-08" x2="803.25" y2="1024" stroke="#DCDCDC" stroke-width="0.5" stroke-dasharray="2 2"/>
<line x1="845.25" y1="1.11864e-08" x2="845.25" y2="1024" stroke="#DCDCDC" stroke-width="0.5" stroke-dasharray="2 2"/>
<line x1="888.25" y1="1.11864e-08" x2="888.25" y2="1024" stroke="#DCDCDC" stroke-width="0.5" stroke-dasharray="2 2"/>
<line x1="930.25" y1="1.09278e-08" x2="930.25" y2="1024" stroke="#DCDCDC" stroke-width="0.5" stroke-dasharray="2 2"/>
<line x1="972.25" y1="1.11864e-08" x2="972.25" y2="1024" stroke="#DCDCDC" stroke-width="0.5" stroke-dasharray="2 2"/>
<line x1="1015.25" y1="1.11864e-08" x2="1015.25" y2="1024" stroke="#DCDCDC" stroke-width="0.5" stroke-dasharray="2 2"/>
<line x1="1057.25" y1="1.11864e-08" x2="1057.25" y2="1024" stroke="#DCDCDC" stroke-width="0.5" stroke-dasharray="2 2"/>
<line x1="1099.25" y1="1.11864e-08" x2="1099.25" y2="1024" stroke="#DCDCDC" stroke-width="0.5" stroke-dasharray="2 2"/>
<line x1="1141.25" y1="1.11864e-08" x2="1141.25" y2="1024" stroke="#DCDCDC" stroke-width="0.5" stroke-dasharray="2 2"/>
<line x1="1184.25" y1="1.11864e-08" x2="1184.25" y2="1024" stroke="#DCDCDC" stroke-width="0.5" stroke-dasharray="2 2"/>
<rect width="1205" height="1024" fill="url(#paint0_radial_2310_5835)"/>
</g>
<defs>
<radialGradient id="paint0_radial_2310_5835" cx="0" cy="0" r="1" gradientUnits="userSpaceOnUse" gradientTransform="translate(602.5 512) rotate(-0.463841) scale(602.506 406.166)">
<stop offset="0.595" stop-color="white" stop-opacity="0.2"/>
<stop offset="1" stop-color="white"/>
</radialGradient>
<clipPath id="clip0_2310_5835">
<rect width="1205" height="1024" fill="white"/>
</clipPath>
</defs>
</svg>

