<svg xmlns="http://www.w3.org/2000/svg" width="24" height="24"><path style="fill-rule:nonzero;fill:#fff;fill-opacity:1;stroke-width:2;stroke-linecap:butt;stroke-linejoin:miter;stroke:#1c78c0;stroke-opacity:1;stroke-miterlimit:4" d="M12.994-1.002h43.012c7.723 0 13.996 6.273 13.996 13.996v43.012c0 7.723-6.273 13.996-13.996 13.996H12.994c-7.723 0-13.996-6.273-13.996-13.996V12.994c0-7.723 6.273-13.996 13.996-13.996Zm0 0" transform="matrix(.32877 0 0 .32877 .658 .658)"/><path style="stroke:none;fill-rule:nonzero;fill:#fff;fill-opacity:1" d="m11.918 2.957 7.645 4.324v8.649l-7.645 4.324-7.645-4.324V7.28Zm0 0"/><path style="stroke:none;fill-rule:nonzero;fill:#8ed6fb;fill-opacity:1" d="m18.195 15.633-6.023 3.41v-2.656l3.754-2.067Zm.414-.371v-7.13l-2.203 1.274v4.582Zm-12.992.37 6.024 3.411v-2.656L7.887 14.32Zm-.414-.374V8.133l2.203 1.273v4.582l-2.203 1.274Zm.258-7.59 6.18-3.496v2.566L7.68 8.918l-.032.016Zm12.89 0-6.18-3.496v2.566l3.962 2.176.031.02Zm0 0"/><path style="stroke:none;fill-rule:nonzero;fill:#1c78c0;fill-opacity:1" d="m11.64 15.785-3.703-2.039V9.711l3.704 2.137Zm.532 0 3.703-2.039V9.711l-3.703 2.137ZM8.187 9.242l3.72-2.043 3.718 2.043-3.719 2.149Zm0 0"/></svg>
