<svg width="800" height="800" viewBox="0 0 73 73" xmlns="http://www.w3.org/2000/svg"><g fill="none" fill-rule="nonzero"><rect x="-1" y="-1" width="71" height="71" rx="14" transform="translate(2 2)" fill="#FFF" stroke="#5C0D06" stroke-width="2"/><g transform="translate(13 16)"><path d="M43.9 30.28c-2.423 1.264-14.978 6.426-17.65 7.82-2.673 1.393-4.158 1.38-6.27.37-2.111-1.01-15.472-6.406-17.878-7.556-1.203-.575-1.836-1.06-1.836-1.519v-4.59s17.394-3.787 20.202-4.794c2.808-1.008 3.782-1.044 6.172-.168 2.39.875 16.678 3.453 19.04 4.318l-.001 4.525c0 .454-.545.952-1.779 1.595Z" fill="#A41E11"/><path d="M43.9 25.689c-2.423 1.263-14.978 6.425-17.65 7.819-2.673 1.393-4.158 1.38-6.27.37-2.111-1.009-15.472-6.406-17.878-7.556-2.407-1.15-2.457-1.942-.093-2.868 2.364-.926 15.65-6.139 18.46-7.146 2.807-1.007 3.781-1.044 6.17-.169 2.39.876 14.87 5.843 17.232 6.708 2.362.866 2.453 1.579.03 2.842Z" fill="#D82C20"/><path d="M43.9 22.795c-2.423 1.263-14.978 6.425-17.65 7.82-2.673 1.392-4.158 1.379-6.27.37-2.111-1.01-15.472-6.407-17.878-7.557C.899 22.853.266 22.368.266 21.91v-4.59s17.394-3.787 20.202-4.795c2.808-1.007 3.782-1.043 6.172-.168 2.39.875 16.678 3.453 19.04 4.318l-.001 4.526c0 .453-.545.951-1.779 1.594Z" fill="#A41E11"/><path d="M43.9 18.203c-2.423 1.264-14.978 6.426-17.65 7.82-2.673 1.393-4.158 1.38-6.27.37-2.111-1.01-15.472-6.407-17.878-7.557-2.407-1.15-2.457-1.942-.093-2.868 2.364-.925 15.65-6.138 18.46-7.146 2.807-1.007 3.781-1.044 6.17-.168 2.39.875 14.87 5.842 17.232 6.708 2.362.865 2.453 1.578.03 2.841Z" fill="#D82C20"/><path d="M43.9 15.032c-2.423 1.263-14.978 6.425-17.65 7.82-2.673 1.392-4.158 1.379-6.27.37-2.111-1.01-15.472-6.407-17.878-7.557C.899 15.09.266 14.605.266 14.147v-4.59S17.66 5.77 20.468 4.762c2.808-1.008 3.782-1.044 6.172-.169 2.39.876 16.678 3.453 19.04 4.318l-.001 4.526c0 .453-.545.951-1.779 1.594Z" fill="#A41E11"/><path d="M43.9 10.44c-2.423 1.263-14.978 6.426-17.65 7.82-2.673 1.392-4.158 1.379-6.27.37-2.111-1.01-15.472-6.407-17.878-7.557-2.407-1.15-2.457-1.942-.093-2.868 2.364-.925 15.65-6.138 18.46-7.146C23.275.052 24.25.015 26.638.891c2.39.876 14.87 5.843 17.232 6.708 2.362.865 2.453 1.578.03 2.841Z" fill="#D82C20"/><path fill="#FFF" d="m28.924 6.019-3.935.409-.881 2.119-1.423-2.365-4.544-.408 3.391-1.223-1.018-1.877 3.175 1.242 2.992-.98-.809 1.941zM23.873 16.303l-7.344-3.046 10.523-1.616z"/><ellipse fill="#FFF" cx="13.691" cy="9.378" rx="5.625" ry="2.18"/><path fill="#7A0C00" d="m33.574 6.599 6.229 2.461-6.223 2.459z"/><path fill="#AD2115" d="m26.684 9.324 6.89-2.725.006 4.92-.676.264z"/></g></g></svg>
