<svg width="800" height="800" viewBox="0 0 73 73" xmlns="http://www.w3.org/2000/svg"><g fill="none" fill-rule="nonzero"><rect x="-1" y="-1" width="71" height="71" rx="14" transform="translate(2 2)" fill="#FFF" stroke="#424A60" stroke-width="2"/><g transform="translate(15 13)"><path d="M42.64 7.04C41.997 3.113 32.807 0 21.56 0 10.313 0 1.123 3.113.48 7.04H.44V39.6h.04c.643 3.926 9.834 7.04 21.08 7.04 11.246 0 20.437-3.114 21.08-7.04h.04V7.04h-.04Z" fill="#424A60"/><g fill="#424A60"><path d="M21.56 36.08C9.896 36.08.44 32.73.44 28.6v11h.04c.643 3.926 9.834 7.04 21.08 7.04 11.246 0 20.437-3.114 21.08-7.04h.04v-11c0 4.13-9.456 7.48-21.12 7.48ZM.44 28.16v.44c0-.148.016-.294.04-.44H.44ZM42.64 28.16c.024.146.04.292.04.44v-.44h-.04Z"/></g><g fill="#556080"><path d="M21.56 25.52C9.896 25.52.44 22.17.44 18.04v11h.04c.643 3.926 9.834 7.04 21.08 7.04 11.246 0 20.437-3.114 21.08-7.04h.04v-11c0 4.13-9.456 7.48-21.12 7.48Z"/><path d="M.44 17.6v.44c0-.148.016-.294.04-.44H.44ZM42.64 17.6c.024.146.04.292.04.44v-.44h-.04Z"/></g><ellipse fill="#7FABDA" cx="21.56" cy="7.48" rx="21.12" ry="7.48"/><g fill="#7383BF"><path d="M21.56 14.96C9.896 14.96.44 11.61.44 7.48v11h.04c.643 3.926 9.834 7.04 21.08 7.04 11.246 0 20.437-3.114 21.08-7.04h.04v-11c0 4.13-9.456 7.48-21.12 7.48ZM.44 7.04v.44c0-.148.016-.294.04-.44H.44ZM42.64 7.04c.024.146.04.292.04.44v-.44h-.04Z"/></g></g></g></svg>
